<svg width="20" height="20" viewBox="0 0 20 20" fill="none" xmlns="http://www.w3.org/2000/svg">
<path d="M15 6.59333H14.8917C13.3167 6.54333 12.1417 5.32667 12.1417 3.82667C12.1417 2.29333 13.3917 1.05167 14.9167 1.05167C16.4417 1.05167 17.6917 2.30167 17.6917 3.82667C17.6927 4.54722 17.4131 5.23987 16.9123 5.75786C16.4114 6.27585 15.7285 6.57849 15.0083 6.60167C15.0083 6.59333 15.0083 6.59333 15 6.59333ZM14.9167 2.29333C14.075 2.29333 13.3917 2.97667 13.3917 3.81833C13.3917 4.64333 14.0333 5.31 14.8583 5.34333C14.8667 5.335 14.9333 5.335 15.0083 5.34333C15.4029 5.31732 15.772 5.13921 16.0379 4.84651C16.3038 4.55382 16.4457 4.16937 16.4339 3.77411C16.422 3.37885 16.2572 3.00362 15.9742 2.72742C15.6912 2.45123 15.3121 2.29561 14.9167 2.29333Z" fill="#363636"/>
<path d="M15.0075 12.7333C14.6825 12.7333 14.3575 12.7083 14.0325 12.65C13.9515 12.6359 13.874 12.6059 13.8045 12.5618C13.7351 12.5178 13.675 12.4604 13.6278 12.393C13.5806 12.3257 13.5471 12.2497 13.5293 12.1693C13.5115 12.089 13.5098 12.006 13.5242 11.925C13.5383 11.8439 13.5682 11.7665 13.6123 11.697C13.6564 11.6276 13.7138 11.5675 13.7811 11.5203C13.8485 11.4731 13.9245 11.4396 14.0048 11.4218C14.0851 11.404 14.1682 11.4023 14.2492 11.4166C15.2742 11.5916 16.3575 11.4 17.0825 10.9166C17.4742 10.6583 17.6825 10.3333 17.6825 10.0083C17.6825 9.68332 17.4658 9.36665 17.0825 9.10832C16.3575 8.62498 15.2575 8.43332 14.2242 8.61665C13.8825 8.68332 13.5575 8.44998 13.4992 8.10832C13.4408 7.76665 13.6658 7.44165 14.0075 7.38332C15.3658 7.14165 16.7742 7.39998 17.7742 8.06665C18.5075 8.55832 18.9325 9.25832 18.9325 10.0083C18.9325 10.75 18.5158 11.4583 17.7742 11.9583C17.0158 12.4583 16.0325 12.7333 15.0075 12.7333Z" fill="#363636"/>
<path d="M4.975 6.59166H4.95833C4.23939 6.56915 3.55739 6.26786 3.0566 5.75152C2.55581 5.23518 2.27551 4.54429 2.275 3.82499C2.275 2.29166 3.525 1.04166 5.05 1.04166C6.575 1.04166 7.825 2.29166 7.825 3.81666C7.825 5.32499 6.65 6.54166 5.15 6.59166L4.975 5.96666L5.03333 6.59166H4.975ZM5.05833 5.34166C5.10834 5.34166 5.15 5.34166 5.2 5.34999C5.94167 5.31666 6.59167 4.64999 6.59167 3.82499C6.59122 3.52702 6.5035 3.23571 6.33932 2.98704C6.17515 2.73838 5.94173 2.54326 5.66789 2.42579C5.39406 2.30831 5.09181 2.27363 4.79848 2.32604C4.50515 2.37844 4.23361 2.51562 4.01738 2.72064C3.80116 2.92566 3.64973 3.18954 3.58181 3.47966C3.5139 3.76979 3.53246 4.07346 3.63521 4.35315C3.73796 4.63284 3.9204 4.87631 4.15999 5.05346C4.39957 5.23062 4.68581 5.33371 4.98333 5.34999C4.99167 5.34166 5.025 5.34166 5.05833 5.34166Z" fill="#363636"/>
<path d="M4.96667 12.7333C3.94167 12.7333 2.95833 12.4583 2.2 11.9583C1.46667 11.4666 1.04167 10.7583 1.04167 10.0083C1.04167 9.26665 1.46667 8.55832 2.2 8.06665C3.2 7.39998 4.60833 7.14165 5.96667 7.38332C6.30833 7.44165 6.53333 7.76665 6.475 8.10832C6.41667 8.44998 6.09167 8.68332 5.75 8.61665C4.71667 8.43332 3.625 8.62498 2.89167 9.10832C2.5 9.36665 2.29167 9.68332 2.29167 10.0083C2.29167 10.3333 2.50833 10.6583 2.89167 10.9166C3.61667 11.4 4.7 11.5916 5.725 11.4166C6.06667 11.3583 6.39167 11.5916 6.45 11.925C6.50833 12.2666 6.28333 12.5916 5.94167 12.65C5.61667 12.7083 5.29167 12.7333 4.96667 12.7333Z" fill="#363636"/>
<path d="M10 12.8167H9.89167C8.31667 12.7667 7.14167 11.55 7.14167 10.05C7.14167 8.51666 8.39167 7.27499 9.91667 7.27499C11.4417 7.27499 12.6917 8.52499 12.6917 10.05C12.6927 10.7705 12.4131 11.4632 11.9123 11.9812C11.4114 12.4992 10.7285 12.8018 10.0083 12.825C10.0083 12.8167 10.0083 12.8167 10 12.8167ZM9.91667 8.51666C9.075 8.51666 8.39167 9.19999 8.39167 10.0417C8.39167 10.8667 9.03333 11.5333 9.85833 11.5667C9.86667 11.5583 9.93333 11.5583 10.0083 11.5667C10.8167 11.525 11.4417 10.8583 11.45 10.0417C11.45 9.20833 10.7667 8.51666 9.91667 8.51666Z" fill="#363636"/>
<path d="M10.0008 18.9658C9.00083 18.9658 8.00083 18.7075 7.22583 18.1825C6.4925 17.6908 6.0675 16.9908 6.0675 16.2408C6.0675 15.4991 6.48417 14.7825 7.22583 14.2908C8.78417 13.2575 11.2258 13.2575 12.7758 14.2908C13.5092 14.7825 13.9342 15.4825 13.9342 16.2325C13.9342 16.9741 13.5175 17.6908 12.7758 18.1825C12.0008 18.6991 11.0008 18.9658 10.0008 18.9658ZM7.9175 15.3408C7.52583 15.5991 7.3175 15.9241 7.3175 16.2491C7.3175 16.5741 7.53417 16.8908 7.9175 17.1491C9.0425 17.9075 10.9508 17.9075 12.0758 17.1491C12.4675 16.8908 12.6758 16.5658 12.6758 16.2408C12.6758 15.9158 12.4592 15.5991 12.0758 15.3408C10.9592 14.5825 9.05083 14.5908 7.9175 15.3408Z" fill="#363636"/>
</svg>
